<svg width="200" height="200" viewBox="0 0 200 200" fill="none" xmlns="http://www.w3.org/2000/svg">
<path fill-rule="evenodd" clip-rule="evenodd" d="M77.0995 69.2999C77.0995 60.2207 84.491 52.8993 93.5001 52.8993V43.1006C79.1093 43.1006 67.3008 54.7791 67.3008 69.2999V92.1006H65.2821C60.2634 92.1006 55.4699 93.3988 51.7797 95.7643C48.14 98.0974 45 101.917 45 106.905V143.095C45 148.034 48.0957 151.853 51.7251 154.2C55.4069 156.582 60.2074 157.899 65.2821 157.899H127.517C132.591 157.899 137.392 156.582 141.074 154.2C144.703 151.853 147.799 148.034 147.799 143.095V106.905C147.799 101.966 144.703 98.147 141.074 95.7995C137.392 93.4179 132.591 92.1006 127.517 92.1006H127.099V77.1H117.301V92.1006H77.0995V69.2999ZM57.0677 104.014C55.1274 105.257 54.7987 106.39 54.7987 106.905V143.095C54.7987 143.594 55.1214 144.727 57.0469 145.973C58.92 147.184 61.8109 148.101 65.2821 148.101H127.517C130.988 148.101 133.879 147.184 135.752 145.973C137.677 144.727 138 143.594 138 143.095V106.905C138 106.406 137.677 105.272 135.752 104.027C133.879 102.815 130.988 101.899 127.517 101.899H65.2821C61.8554 101.899 58.9575 102.802 57.0677 104.014Z" fill="black"/>
<path d="M155.8 52.9V43C140.1 43 127.3 55.8 127.3 71.5H137.2C137.2 61.3 145.5 52.9 155.8 52.9Z" fill="url(#paint0_linear_1918_4147)"/>
<path d="M98.7998 43.1001V53.0001C109.1 53.0001 117.4 61.4001 117.4 71.6001H127.3C127.3 55.9001 114.5 43.1001 98.7998 43.1001Z" fill="url(#paint1_linear_1918_4147)"/>
<defs>
<linearGradient id="paint0_linear_1918_4147" x1="91.6976" y1="57.3228" x2="153.386" y2="57.3228" gradientUnits="userSpaceOnUse">
<stop offset="0.1069" stop-color="#0F26AA"/>
<stop offset="0.8803" stop-color="#FF4A56"/>
</linearGradient>
<linearGradient id="paint1_linear_1918_4147" x1="91.6976" y1="57.3229" x2="153.386" y2="57.3229" gradientUnits="userSpaceOnUse">
<stop offset="0.1069" stop-color="#0F26AA"/>
<stop offset="0.8803" stop-color="#FF4A56"/>
</linearGradient>
</defs>
</svg>
