<svg width="200" height="200" viewBox="0 0 200 200" fill="none" xmlns="http://www.w3.org/2000/svg">
<path d="M199.3 74.9V65C183.6 65 170.8 77.8 170.8 93.5H180.7C180.7 83.3 189.1 74.9 199.3 74.9Z" fill="url(#paint0_linear_1918_4141)"/>
<path d="M142.3 65.1001V75.0001C152.6 75.0001 160.9 83.4001 160.9 93.6001H170.8C170.8 77.9001 158 65.1001 142.3 65.1001Z" fill="url(#paint1_linear_1918_4141)"/>
<path fill-rule="evenodd" clip-rule="evenodd" d="M37.3993 74.8993C23.2605 74.8993 11.7987 86.3611 11.7987 100.5C11.7987 114.639 23.2605 126.101 37.3993 126.101C49.9967 126.101 60.469 117.002 62.6027 105.017C62.6241 103.683 62.7573 102.376 62.993 101.103C62.9977 100.903 63 100.702 63 100.5C63 86.3611 51.5382 74.8993 37.3993 74.8993ZM70.4424 87.7741C65.331 74.511 52.4641 65.1006 37.3993 65.1006C17.8488 65.1006 2 80.9494 2 100.5C2 120.05 17.8488 135.899 37.3993 135.899C56.345 135.899 71.8146 121.016 72.7536 102.303C74.2168 96.0079 80.0157 91.1993 86.699 91.1993C93.0787 91.1993 98.5116 95.5646 100.118 101.652C100.722 120.721 116.279 135.899 135.499 135.899C155.115 135.899 170.898 119.995 170.898 100.5H161.1C161.1 114.605 149.683 126.101 135.499 126.101C122.982 126.101 112.633 117.23 110.362 105.4H110.398C110.398 103.707 110.226 102.055 109.898 100.46C109.92 86.3736 121.329 74.8993 135.499 74.8993V65.1006C120.484 65.1006 107.714 74.419 102.55 87.5336C98.3635 83.7216 92.8166 81.4006 86.699 81.4006C80.506 81.4006 74.7659 83.818 70.4424 87.7741Z" fill="black"/>
<defs>
<linearGradient id="paint0_linear_1918_4141" x1="135.218" y1="79.3236" x2="196.907" y2="79.3236" gradientUnits="userSpaceOnUse">
<stop offset="0.1069" stop-color="#0F26AA"/>
<stop offset="0.8803" stop-color="#FF4A56"/>
</linearGradient>
<linearGradient id="paint1_linear_1918_4141" x1="135.218" y1="79.3237" x2="196.907" y2="79.3237" gradientUnits="userSpaceOnUse">
<stop offset="0.1069" stop-color="#0F26AA"/>
<stop offset="0.8803" stop-color="#FF4A56"/>
</linearGradient>
</defs>
</svg>
